<svg width="31" height="31" viewBox="0 0 31 31" fill="none" xmlns="http://www.w3.org/2000/svg">
<path d="M17.2918 4.71015C17.8074 4.1452 18.7449 4.38635 18.9238 5.12996L19.1808 6.19762C19.3197 6.77479 19.9464 7.08625 20.4904 6.84843L21.4965 6.40851C22.1973 6.10211 22.9556 6.70371 22.8167 7.45583L22.6172 8.5357C22.5093 9.11946 22.9552 9.6589 23.5488 9.66288L24.6469 9.67025C25.4117 9.67537 25.8598 10.5334 25.427 11.164L24.8055 12.0693C24.4695 12.5588 24.6574 13.2329 25.1981 13.478L26.1983 13.9314C26.8949 14.2471 26.9552 15.2132 26.3033 15.6132L25.3673 16.1875C24.8613 16.498 24.7588 17.1903 25.153 17.6341L25.8823 18.4551C26.3903 19.0269 26.0525 19.934 25.2942 20.0343L24.2056 20.1782C23.617 20.256 23.2418 20.8468 23.4214 21.4126L23.7538 22.4592C23.9852 23.1882 23.3077 23.8795 22.5742 23.6627L21.5211 23.3514C20.9518 23.1831 20.3687 23.5701 20.3027 24.1601L20.1806 25.2514C20.0956 26.0115 19.1954 26.3674 18.6135 25.871L17.7781 25.1583C17.3265 24.773 16.6364 24.8894 16.3361 25.4015L15.7807 26.3488C15.3938 27.0086 14.4267 26.9677 14.097 26.2775L13.6237 25.2866C13.3679 24.7509 12.6901 24.5766 12.2075 24.9223L11.3148 25.5618C10.693 26.0072 9.82615 25.5764 9.8057 24.8118L9.77634 23.7141C9.76046 23.1206 9.2122 22.6857 8.63071 22.8052L7.55506 23.0263C6.80588 23.1803 6.1892 22.4342 6.4815 21.7274L6.90118 20.7126C7.12805 20.1641 6.8041 19.5437 6.22426 19.4164L5.15167 19.1809C4.40462 19.0168 4.14474 18.0844 4.69924 17.5576L5.49538 16.8013C5.92577 16.3924 5.88214 15.6939 5.40422 15.3417L4.52015 14.6903C3.90441 14.2366 4.04625 13.2791 4.76708 13.0234L5.80203 12.6562C6.36152 12.4578 6.60576 11.8019 6.31239 11.2858L5.76971 10.3311C5.39173 9.66623 5.91077 8.84917 6.67329 8.90875L7.7681 8.9943C8.35994 9.04054 8.84982 8.54075 8.79173 7.94995L8.68427 6.85708C8.60942 6.0959 9.41591 5.5606 10.0883 5.92517L11.0536 6.44862C11.5755 6.73159 12.2263 6.47426 12.4135 5.91091L12.7599 4.86882C13.0011 4.14301 13.9556 3.98201 14.4215 4.58854L15.0905 5.45938C15.4522 5.93015 16.1514 5.95977 16.5516 5.52128L17.2918 4.71015Z" fill="#1B9DE2"/>
<path d="M10.3187 13.9013L12.7712 18.0241C12.8718 18.1932 13.09 18.2493 13.2597 18.1498L21.4142 13.3653" stroke="white" stroke-width="1.78856" stroke-linecap="round"/>
</svg>
