<svg width="25" height="26" viewBox="0 0 25 26" fill="none" xmlns="http://www.w3.org/2000/svg">
<path d="M9.79627 12.5878C9.79627 11.0623 11.0588 9.82411 12.6142 9.82411C14.1697 9.82411 15.4322 11.0623 15.4322 12.5878C15.4322 14.1133 14.1697 15.3515 12.6142 15.3515C11.0588 15.3515 9.79627 14.1133 9.79627 12.5878ZM24.0477 10.1807C23.775 9.91326 23.4114 9.79439 23.0579 9.82411V0.800049H19.1087C18.028 0.800049 17.8462 1.55288 17.7149 1.69156C17.3209 2.09769 17.0381 2.34533 16.4725 2.34533H13.6041V9.03165H16.4624C17.028 9.03165 17.3108 8.78401 17.7048 8.37788C17.8462 8.22929 18.0179 7.48637 19.0986 7.48637H21.6842V10.785L18.3209 14.0835L16.9472 15.4307C16.5331 15.8269 15.9877 16.035 15.4524 16.035H12.6142H9.74576C8.83674 16.035 7.94792 16.3618 7.26111 17.0453L0.463645 23.7217C-0.0211663 24.1972 -0.0211663 24.95 0.463645 25.4255C0.948457 25.901 1.71607 25.901 2.20089 25.4255L8.14993 19.5911C8.22063 19.5217 8.30143 19.4821 8.39233 19.4821C8.58424 19.4821 8.74584 19.6406 8.74584 19.8288V22.9392V26H16.4624V19.3038L20.0379 15.7972L21.6842 14.1826V15.3614H23.0579V12.8255L24.0174 11.8845C24.5224 11.4288 24.5224 10.6562 24.0477 10.1807Z" fill="#0076B2"/>
</svg>
