<svg width="1141" height="10839" viewBox="0 0 1141 10839" fill="none" xmlns="http://www.w3.org/2000/svg">
<line x1="190.5" y1="4.18584e-08" x2="190.5" y2="10839" stroke="url(#paint0_linear_27_96)"/>
<line x1="380.5" y1="4.18584e-08" x2="380.5" y2="10839" stroke="url(#paint1_linear_27_96)"/>
<line x1="570.5" y1="4.18584e-08" x2="570.5" y2="10839" stroke="url(#paint2_linear_27_96)"/>
<line x1="760.5" y1="4.18584e-08" x2="760.5" y2="10839" stroke="url(#paint3_linear_27_96)"/>
<line x1="950.5" y1="4.18584e-08" x2="950.5" y2="10839" stroke="url(#paint4_linear_27_96)"/>
<line x1="1140.5" y1="3.3401e-08" x2="1140.5" y2="10839" stroke="url(#paint5_linear_27_96)"/>
<line x1="0.500061" y1="3.47508e-08" x2="0.499763" y2="10839" stroke="url(#paint6_linear_27_96)"/>
<defs>
<linearGradient id="paint0_linear_27_96" x1="190" y1="73.5423" x2="190.006" y2="11266.1" gradientUnits="userSpaceOnUse">
<stop stop-color="#FDFDFD"/>
<stop offset="1" stop-color="#D9D9D9"/>
</linearGradient>
<linearGradient id="paint1_linear_27_96" x1="380" y1="73.5423" x2="380.006" y2="11266.1" gradientUnits="userSpaceOnUse">
<stop stop-color="#FDFDFD"/>
<stop offset="1" stop-color="#D9D9D9"/>
</linearGradient>
<linearGradient id="paint2_linear_27_96" x1="570" y1="73.5423" x2="570.006" y2="11266.1" gradientUnits="userSpaceOnUse">
<stop stop-color="#FDFDFD"/>
<stop offset="1" stop-color="#D9D9D9"/>
</linearGradient>
<linearGradient id="paint3_linear_27_96" x1="760" y1="73.5423" x2="760.006" y2="11266.1" gradientUnits="userSpaceOnUse">
<stop stop-color="#FDFDFD"/>
<stop offset="1" stop-color="#D9D9D9"/>
</linearGradient>
<linearGradient id="paint4_linear_27_96" x1="950" y1="73.5423" x2="950.006" y2="11266.1" gradientUnits="userSpaceOnUse">
<stop stop-color="#FDFDFD"/>
<stop offset="1" stop-color="#D9D9D9"/>
</linearGradient>
<linearGradient id="paint5_linear_27_96" x1="1140" y1="73.5423" x2="1140.01" y2="11266.1" gradientUnits="userSpaceOnUse">
<stop stop-color="#FDFDFD"/>
<stop offset="1" stop-color="#D9D9D9"/>
</linearGradient>
<linearGradient id="paint6_linear_27_96" x1="5.93853e-05" y1="73.5423" x2="0.00585702" y2="11266.1" gradientUnits="userSpaceOnUse">
<stop stop-color="#FDFDFD"/>
<stop offset="1" stop-color="#D9D9D9"/>
</linearGradient>
</defs>
</svg>
