<svg width="375" height="221" viewBox="0 0 375 221" fill="none" xmlns="http://www.w3.org/2000/svg">
<rect y="0.644531" width="376" height="220" fill="#F1F5F9"/>
<mask id="mask0_91_1796" style="mask-type:alpha" maskUnits="userSpaceOnUse" x="0" y="0" width="376" height="221">
<rect y="0.644531" width="376" height="220" fill="#F1F5F9"/>
</mask>
<g mask="url(#mask0_91_1796)">
<path d="M469.937 147.867C469.937 261.307 384.925 353.009 280.367 353.009C175.809 353.009 90.7975 261.307 90.7975 147.867C90.7975 34.4256 175.809 -57.2757 280.367 -57.2757C384.925 -57.2757 469.937 34.4256 469.937 147.867Z" stroke="#E2E8F0" stroke-width="3.83523"/>
<path opacity="0.8" d="M658.959 64.3327C658.959 175.445 573.983 265.328 469.389 265.328C364.796 265.328 279.819 175.445 279.819 64.3327C279.819 -46.7801 364.796 -136.662 469.389 -136.662C573.983 -136.662 658.959 -46.7801 658.959 64.3327Z" stroke="#E2E8F0" stroke-width="3.83523"/>
</g>
</svg>
