<svg width="343" height="289" viewBox="0 0 343 289" fill="none" xmlns="http://www.w3.org/2000/svg">
<rect y="0.644531" width="343" height="288" rx="11.6932" fill="#2563EB"/>
<mask id="mask0_91_1858" style="mask-type:alpha" maskUnits="userSpaceOnUse" x="0" y="0" width="343" height="289">
<rect y="0.644531" width="343" height="288" rx="11.6932" fill="#2563EB"/>
</mask>
<g mask="url(#mask0_91_1858)">
<path opacity="0.2" d="M74.8742 -59.952C90.9211 -22.9066 74.2732 27.1742 37.2282 51.7827C0.183227 76.3912 -42.7167 65.8672 -58.7636 28.8218C-74.8106 -8.22366 -58.1627 -58.3045 -21.1177 -82.9129C15.9273 -107.521 58.8272 -96.9975 74.8742 -59.952Z" stroke="#F1F5F9" stroke-width="4.09262"/>
<path d="M376.813 261.01C376.813 305.703 341.306 341.864 297.591 341.864C253.877 341.864 218.37 305.703 218.37 261.01C218.37 216.317 253.877 180.156 297.591 180.156C341.306 180.156 376.813 216.317 376.813 261.01Z" stroke="white" stroke-width="4.09262"/>
</g>
</svg>
