<svg width="1167" height="287" viewBox="0 0 1167 287" fill="none" xmlns="http://www.w3.org/2000/svg">
<rect x="0.300003" y="0.1875" width="1166.4" height="286.2" rx="18" fill="#2563EB"/>
<mask id="mask0_203_2161" style="mask-type:alpha" maskUnits="userSpaceOnUse" x="0" y="0" width="1167" height="287">
<rect x="0.300003" y="0.1875" width="1166.4" height="286.2" rx="18" fill="#2563EB"/>
</mask>
<g mask="url(#mask0_203_2161)">
<path opacity="0.2" d="M115.606 -75.1558C140.008 -29.6657 114.849 32.4881 57.5707 63.2134C0.292577 93.9386 -65.4043 80.522 -89.8062 35.0319C-114.208 -10.4583 -89.0488 -72.6121 -31.7707 -103.337C25.5074 -134.063 91.2043 -120.646 115.606 -75.1558Z" stroke="#F1F5F9" stroke-width="6.3"/>
<path d="M1278.75 323.738C1278.75 378.367 1224.75 423.638 1156.8 423.638C1088.85 423.638 1034.85 378.367 1034.85 323.738C1034.85 269.108 1088.85 223.838 1156.8 223.838C1224.75 223.838 1278.75 269.108 1278.75 323.738Z" stroke="white" stroke-width="6.3"/>
</g>
</svg>
