<svg width="60" height="61" viewBox="0 0 60 61" fill="none" xmlns="http://www.w3.org/2000/svg">
<path d="M2.5 45.8999C2.5 40.2749 10 40.2749 13.75 36.5249C15.625 34.6499 10 34.6499 10 25.2749C10 19.0255 12.4994 15.8999 17.5 15.8999C22.5006 15.8999 25 19.0255 25 25.2749C25 34.6499 19.375 34.6499 21.25 36.5249C25 40.2749 32.5 40.2749 32.5 45.8999" stroke="black" stroke-linecap="round"/>
<path d="M29.9868 41.5077C31.4043 40.5308 33.2444 39.8274 35.0052 38.9793C36.3819 38.3163 37.7101 37.5648 38.75 36.5249C40.625 34.6499 35 34.6499 35 25.2749C35 19.0255 37.4994 15.8999 42.5 15.8999C47.5006 15.8999 50 19.0255 50 25.2749C50 34.6499 44.375 34.6499 46.25 36.5249C50 40.2749 57.5 40.2749 57.5 45.8999" stroke="black" stroke-linecap="round"/>
</svg>
