<svg width="26" height="26" viewBox="0 0 26 26" fill="none" xmlns="http://www.w3.org/2000/svg">
<path d="M13.2 0.800049C6.81184 0.800049 1.53756 5.55537 0.715012 11.7183C0.714224 11.7246 0.713437 11.7305 0.712649 11.7368C0.690599 11.9026 0.670912 12.0688 0.655162 12.2365C0.64768 12.3141 0.643743 12.3924 0.637443 12.4704C0.629174 12.5807 0.620118 12.6909 0.614605 12.8019C0.605549 12.9996 0.600037 13.1992 0.600037 13.4C0.600037 20.3588 6.24129 26 13.2 26C20.1588 26 25.8 20.3588 25.8 13.4C25.8 6.44131 20.1588 0.800049 13.2 0.800049ZM13.7363 23.8352C13.4528 24.1451 12.9878 24.392 12.683 24.099C12.4259 23.8454 12.6441 23.532 12.683 23.1725C12.7323 22.7532 12.5405 22.2492 12.9453 22.1189C13.2748 22.0169 13.5233 22.2456 13.7363 22.5173C14.0612 22.919 14.0816 23.4509 13.7363 23.8352ZM17.7069 20.4364C17.2423 20.6758 16.917 20.6309 16.3985 20.7014C15.4322 20.823 14.6683 21.2999 13.9049 20.7014C13.5635 20.4277 13.5198 20.13 13.2552 19.7796C12.8283 19.2425 12.7216 18.2522 12.07 18.4715C11.6534 18.6117 11.666 19.0287 11.4187 19.391C11.0998 19.8461 11.1797 20.4907 10.6292 20.5695C10.2457 20.6238 10.039 20.3891 9.71535 20.1757C9.35231 19.9339 9.28065 19.6449 8.92706 19.391C8.5593 19.1197 8.26162 19.1181 7.88205 18.8657C7.60879 18.6834 7.55051 18.3522 7.22331 18.3404C6.9276 18.3318 6.71576 18.4767 6.56811 18.7326C6.29209 19.2106 6.19719 20.6199 5.39158 20.5695C4.79466 20.5289 3.51812 19.1878 3.03144 18.8657C2.87197 18.7582 2.72432 18.6487 2.57548 18.5653C1.85531 17.0863 1.43715 15.4342 1.39541 13.6887C1.63717 13.4859 1.88327 13.3859 2.11164 13.1008C2.47665 12.6559 2.30104 12.1137 2.77039 11.7876C3.11925 11.5498 3.40117 11.588 3.82131 11.5286C4.42335 11.4411 4.80214 11.3624 5.39158 11.5286C5.96606 11.6896 6.18538 12.0192 6.70119 12.3129C7.25835 12.6318 7.50917 13.0083 8.14232 13.1008C8.60143 13.1658 8.91643 12.746 9.31884 12.9681C9.64329 13.1484 9.87246 13.3878 9.84686 13.756C9.80749 14.2356 8.85382 13.9308 8.79988 14.4104C8.72782 15.0239 9.78898 14.334 10.3717 14.5403C10.7552 14.6801 11.2541 14.6561 11.2872 15.0656C11.3191 15.5208 10.654 15.3952 10.241 15.5913C9.78347 15.8043 9.54367 15.9834 9.05818 16.1146C8.61521 16.2319 8.14783 15.8673 7.88205 16.2441C7.67336 16.5363 7.74699 16.8304 7.88205 17.1635C8.19193 17.9238 9.20072 17.6959 9.97759 17.4222C10.5221 17.2301 10.6237 16.7426 11.1577 16.5052C11.7239 16.2528 12.1633 15.9795 12.7252 16.2441C13.189 16.463 13.0595 17.0513 13.515 17.2927C14.0084 17.5557 14.4726 17.0056 14.9573 17.2927C15.3342 17.5167 15.3066 17.8916 15.609 18.2089C15.961 18.5798 16.1642 18.8791 16.6595 18.9964C17.1659 19.1141 17.4754 18.5747 17.9695 18.7322C18.3495 18.8562 18.6606 19 18.7519 19.3906C18.8956 19.9497 18.218 20.1718 17.7069 20.4364ZM18.6491 14.1249C18.1948 14.5817 17.8002 14.7309 17.1643 14.8703C16.6001 14.9943 15.8086 15.4365 15.6791 14.8703C15.5803 14.4183 16.0843 14.2568 16.4245 13.9415C16.8021 13.589 17.1545 13.5544 17.5372 13.1965C17.8798 12.8807 17.8349 12.3968 18.2826 12.2676C18.7192 12.1416 19.1417 12.2601 19.3949 12.6405C19.7568 13.1788 19.1087 13.6682 18.6491 14.1249ZM24.2207 12.3444C24.027 12.5444 24.0388 12.7555 23.8407 12.9516C23.6214 13.1638 23.3167 13.0724 23.1564 13.3327C23.0154 13.5599 23.1052 13.7489 23.08 14.0159C23.0639 14.1683 22.3224 14.5104 22.1693 14.1675C22.085 13.9781 22.2799 13.8103 22.1693 13.6347C22.0657 13.4768 21.9507 13.5579 21.8153 13.706C21.6739 13.8588 21.5113 14.0832 21.3345 14.1675C21.1026 14.275 21.2573 13.2815 21.179 12.9516C21.1215 12.6905 21.1829 12.5263 21.257 12.268C21.3554 11.9097 21.6263 11.7932 21.7117 11.4313C21.7881 11.1139 21.7247 10.9214 21.7117 10.5954C21.6964 10.2386 21.7058 10.0335 21.6377 9.68423C21.5621 9.31529 21.5385 9.08376 21.3341 8.77231C21.1695 8.52661 21.0609 8.37816 20.801 8.23996C20.738 8.20531 20.6789 8.18247 20.623 8.16475C20.4891 8.12026 20.3635 8.11435 20.1907 8.08876C19.841 8.03678 19.5914 8.25886 19.2795 8.08876C19.0976 7.98835 19.0409 7.86235 18.9015 7.708C18.7425 7.53711 18.7003 7.39733 18.5208 7.25204C18.3865 7.14336 18.3034 7.07997 18.1408 7.02327C17.8298 6.91971 17.6124 6.99098 17.3037 7.10044C17.0005 7.20597 16.8871 7.37882 16.619 7.55522C16.4134 7.67453 16.2673 7.70131 16.0882 7.85999C15.9795 7.95527 15.4621 8.32343 15.2507 8.31477C15.0365 8.3065 14.9156 8.17971 14.7238 8.16435C14.6983 8.1612 14.6727 8.1612 14.6435 8.16435C14.6435 8.16435 14.6435 8.16435 14.6416 8.16435C14.4553 8.17853 14.3675 8.27027 14.1903 8.31477C13.7544 8.42344 13.4768 8.26949 13.0465 8.39234C12.7661 8.47109 12.6555 8.69395 12.3653 8.69592C12.0341 8.69789 11.9223 8.40336 11.6046 8.31477C11.4305 8.2683 11.3281 8.26397 11.149 8.23996C10.8541 8.19743 10.6852 8.1931 10.3906 8.16475H10.3887C10.3824 8.16711 10.156 8.18759 10.1178 8.16475C9.9516 8.05214 9.83347 7.95961 9.62794 7.86038C9.40153 7.74895 9.26608 7.69186 9.01881 7.63043L9.02904 7.48041C9.02904 7.48041 9.02904 7.14691 8.9814 7.00516C8.93612 6.86301 8.8869 6.86301 8.9814 6.57754C9.07905 6.29326 9.24876 6.11213 9.24876 6.11213C9.3657 6.02236 9.45193 5.99204 9.55155 5.88376C9.75236 5.67152 9.83387 5.49079 9.85631 5.19902C9.88269 4.8163 9.38184 4.66077 9.47437 4.2871C9.55667 3.96186 9.83032 3.90122 10.0835 3.67954C10.3902 3.41573 10.6615 3.38108 10.9183 3.07238C11.1155 2.83889 11.277 2.69241 11.3002 2.38804C11.3211 2.12935 11.2096 1.96752 11.0758 1.78246C11.7652 1.65646 12.4744 1.58755 13.2 1.58755C19.0744 1.58755 23.9455 5.87667 24.857 11.4935C24.7771 11.6321 24.8566 11.8069 24.7507 11.9633C24.6105 12.1771 24.3967 12.1597 24.2207 12.3444Z" fill="#0076B2"/>
</svg>
