<svg width="34" height="34" viewBox="0 0 34 34" fill="none" xmlns="http://www.w3.org/2000/svg">
<rect x="-0.260567" y="0.260567" width="32.3103" height="32.3103" rx="16.1552" transform="matrix(-1 0 0 1 33.1418 0.237793)" fill="#FAFCFF"/>
<rect x="-0.260567" y="0.260567" width="32.3103" height="32.3103" rx="16.1552" transform="matrix(-1 0 0 1 33.1418 0.237793)" stroke="#0076B2" stroke-width="0.521134"/>
<path fill-rule="evenodd" clip-rule="evenodd" d="M21.321 17.5026L14.8913 23.8583C14.4169 24.3272 13.6477 24.3272 13.1733 23.8583C12.6989 23.3893 12.6989 22.629 13.1733 22.1601L18.7441 16.6535L13.1733 11.147C12.6989 10.678 12.6989 9.91772 13.1733 9.44878C13.6477 8.97984 14.4169 8.97984 14.8913 9.44878L21.321 15.8044C21.7954 16.2734 21.7954 17.0337 21.321 17.5026Z" fill="#52525B"/>
</svg>
